<svg xmlns="http://www.w3.org/2000/svg" viewBox="0 0 120 120">
  <rect width="120" height="120" fill="#0A0E21"/>
  <circle cx="60" cy="60" r="44" fill="#111631"/>
  <circle cx="60" cy="60" r="34" fill="#161B35"/>
  <circle cx="60" cy="60" r="34" fill="none" stroke="#1A1F3D" stroke-width="2"/>
  <!-- power glyph: 270° arc + stem -->
  <path d="M47.3 47.3 A18 18 0 1 0 72.7 47.3" fill="none" stroke="#00E5FF" stroke-width="4.5" stroke-linecap="round"/>
  <path d="M60 38 V56" stroke="#00E5FF" stroke-width="4.5" stroke-linecap="round"/>
  <!-- pop: purple node at stem tip -->
  <circle cx="60" cy="38" r="6.5" fill="#B388FF" opacity=".3"/>
  <circle cx="60" cy="38" r="2.6" fill="#B388FF"/>
  <!-- dust -->
  <path fill="#00E5FF" stroke="#00E5FF" stroke-width=".5" d="M30 38c.414-.021.824-.327.801-.776-.023-.448-.462-.71-.877-.689-.414.022-.824.327-.8.776.022.449.461.71.876.689Z"/>
  <path fill="#448AFF" stroke="#448AFF" stroke-width=".5" d="M90 46c.414-.021.824-.327.801-.776-.023-.448-.462-.71-.877-.689-.414.022-.824.327-.8.776.022.449.461.71.876.689Z"/>
  <path fill="#F0F0F5" stroke="#F0F0F5" stroke-width=".5" d="M84 86c.414-.021.824-.327.801-.776-.023-.448-.462-.71-.877-.689-.414.022-.824.327-.8.776.022.449.461.71.876.689Z"/>
</svg>
