<svg xmlns="http://www.w3.org/2000/svg" viewBox="0 0 240 200">
  <rect width="240" height="200" fill="#0A0E21"/>
  <circle cx="120" cy="100" r="78" fill="#111631"/>
  <!-- phone -->
  <rect x="86" y="42" width="68" height="118" rx="12" fill="#161B35" stroke="#448AFF" stroke-width="2.5"/>
  <rect x="92" y="52" width="56" height="98" rx="6" fill="#0A0E21"/>
  <!-- screen cue -->
  <circle cx="98" cy="58" r="1.2" fill="#448AFF"/>
  <circle cx="102" cy="58" r="1.2" fill="#448AFF"/>
  <circle cx="106" cy="58" r="1.2" fill="#448AFF"/>
  <path stroke="#00E5FF" stroke-width="1.5" stroke-linecap="round" opacity=".5" d="M112 58 H140"/>
  <!-- on-screen gauge -->
  <path d="M106 92 A14 14 0 1 1 134 92" fill="none" stroke="#1A1F3D" stroke-width="3.5" stroke-linecap="round"/>
  <path d="M106 92 A14 14 0 0 1 120 78" fill="none" stroke="#00E5FF" stroke-width="3.5" stroke-linecap="round"/>
  <circle cx="120" cy="86" r="2.2" fill="#00E5FF"/>
  <!-- ui rows -->
  <rect x="100" y="106" width="40" height="5" rx="2.5" fill="#F0F0F5" opacity=".2"/>
  <rect x="100" y="116" width="28" height="5" rx="2.5" fill="#F0F0F5" opacity=".15"/>
  <rect x="100" y="126" width="34" height="5" rx="2.5" fill="#F0F0F5" opacity=".1"/>
  <rect x="100" y="136" width="22" height="5" rx="2.5" fill="#00E5FF" opacity=".5"/>
  <!-- node macro: pop = purple node+chip -->
  <path stroke="#F0F0F5" stroke-width="1.4" stroke-linecap="round" d="M154 84 L182 70"/>
  <circle cx="154" cy="84" r="5.3" fill="#B388FF" opacity=".3"/>
  <circle cx="154" cy="84" r="2.2" fill="#B388FF"/>
  <rect x="182" y="66" width="7" height="7" rx="1" fill="#B388FF"/>
  <!-- cyan node lower -->
  <path stroke="#F0F0F5" stroke-width="1.4" stroke-linecap="round" d="M154 122 L178 134"/>
  <circle cx="154" cy="122" r="4.6" fill="#00E5FF" opacity=".3"/>
  <circle cx="154" cy="122" r="2" fill="#00E5FF"/>
  <rect x="178" y="130.5" width="7" height="7" rx="1" fill="#00E5FF"/>
  <!-- dust -->
  <path fill="#00E5FF" stroke="#00E5FF" stroke-width=".5" d="M62 70c.414-.021.824-.327.801-.776-.023-.448-.462-.71-.877-.689-.414.022-.824.327-.8.776.022.449.461.71.876.689Z"/>
  <path fill="#448AFF" stroke="#448AFF" stroke-width=".5" d="M70 120c.414-.021.824-.327.801-.776-.023-.448-.462-.71-.877-.689-.414.022-.824.327-.8.776.022.449.461.71.876.689Z"/>
  <path fill="#F0F0F5" stroke="#F0F0F5" stroke-width=".5" d="M178 104c.414-.021.824-.327.801-.776-.023-.448-.462-.71-.877-.689-.414.022-.824.327-.8.776.022.449.461.71.876.689Z"/>
  <path fill="#448AFF" stroke="#448AFF" stroke-width=".5" d="M58 95c.414-.021.824-.327.801-.776-.023-.448-.462-.71-.877-.689-.414.022-.824.327-.8.776.022.449.461.71.876.689Z"/>
</svg>
