<svg xmlns="http://www.w3.org/2000/svg" viewBox="0 0 108 108">
  <defs>
    <clipPath id="mask1"><circle cx="54" cy="54" r="36"/></clipPath>
  </defs>
  <g clip-path="url(#mask1)">
    <!-- background layer (full bleed) -->
    <rect width="108" height="108" fill="#0A0E21"/>
    <circle cx="54" cy="54" r="30" fill="#111631"/>
    <circle cx="54" cy="54" r="30" fill="none" stroke="#1A1F3D" stroke-width="1"/>
    <!-- foreground: SoC chip -->
    <path stroke="#F0F0F5" stroke-width="1.2" stroke-linecap="round" d="M54 36V27"/>
    <path stroke="#F0F0F5" stroke-width="1.2" stroke-linecap="round" d="M54 72v9"/>
    <path stroke="#F0F0F5" stroke-width="1.2" stroke-linecap="round" d="M36 54h-9"/>
    <path stroke="#F0F0F5" stroke-width="1.2" stroke-linecap="round" d="M72 54h9"/>
    <rect x="51.5" y="22" width="5" height="5" rx="1" fill="#00E5FF"/>
    <rect x="51.5" y="81" width="5" height="5" rx="1" fill="#448AFF"/>
    <rect x="22" y="51.5" width="5" height="5" rx="1" fill="#448AFF"/>
    <rect x="81" y="51.5" width="5" height="5" rx="1" fill="#00E5FF"/>
    <rect x="36" y="36" width="36" height="36" rx="5" fill="#161B35" stroke="#448AFF" stroke-width="1.5"/>
    <rect x="42" y="42" width="24" height="24" rx="3" fill="#0A0E21"/>
    <path stroke="#1A1F3D" stroke-width="1" d="M42 50h24M42 58h24M50 42v24M58 42v24"/>
    <!-- the one pop: purple core -->
    <circle cx="54" cy="54" r="6.5" fill="#B388FF" opacity=".3"/>
    <circle cx="54" cy="54" r="2.6" fill="#B388FF"/>
  </g>
</svg>
